<svg width="26" height="26" viewBox="0 0 26 26" fill="none" xmlns="http://www.w3.org/2000/svg">
<g clip-path="url(#clip0_2_786)">
<path d="M16.7917 15.1667H15.9358L15.6325 14.8742C16.6942 13.6392 17.3333 12.0358 17.3333 10.2917C17.3333 6.4025 14.1808 3.25 10.2917 3.25C6.4025 3.25 3.25 6.4025 3.25 10.2917C3.25 14.1808 6.4025 17.3333 10.2917 17.3333C12.0358 17.3333 13.6392 16.6942 14.8742 15.6325L15.1667 15.9358V16.7917L20.5833 22.1975L22.1975 20.5833L16.7917 15.1667ZM10.2917 15.1667C7.59417 15.1667 5.41667 12.9892 5.41667 10.2917C5.41667 7.59417 7.59417 5.41667 10.2917 5.41667C12.9892 5.41667 15.1667 7.59417 15.1667 10.2917C15.1667 12.9892 12.9892 15.1667 10.2917 15.1667Z" fill="#A7A7A7"/>
</g>
<defs>
<clipPath id="clip0_2_786">
<rect width="26" height="26" fill="white"/>
</clipPath>
</defs>
</svg>
